<svg width="544" height="352" viewBox="0 0 544 352" fill="none" xmlns="http://www.w3.org/2000/svg">
<path d="M95.7033 60.352H83.5593V82H69.3033V16.88H95.7033C108.991 16.88 117.879 25.592 117.879 38.616C117.879 51.64 108.991 60.352 95.7033 60.352ZM92.5353 29.552H83.5593V47.68H92.5353C99.3993 47.68 102.831 44.688 102.831 38.616C102.831 32.544 99.3993 29.552 92.5353 29.552ZM143.391 83.144C130.103 83.144 120.599 73.464 120.599 59.912C120.599 46.184 129.839 36.592 143.127 36.592C156.943 36.592 165.567 45.656 165.567 60V63.432L133.623 63.608C134.415 69.416 137.671 72.144 143.655 72.144C148.759 72.144 152.367 70.296 153.335 67.128H165.743C164.159 76.896 155.447 83.144 143.391 83.144ZM143.215 47.592C137.847 47.592 134.855 49.968 133.799 55.248H152.103C152.103 50.584 148.671 47.592 143.215 47.592ZM190.939 82H177.387V49.264H169.027V38H177.387V24.36H190.939V38H199.299V49.264H190.939V82ZM226.742 35.8C226.742 24.008 236.686 15.648 250.678 15.648C264.67 15.648 273.47 23.392 273.47 35.712H259.302C259.302 31.136 255.87 28.32 250.502 28.32C244.694 28.32 240.998 30.96 240.998 35.272C240.998 39.232 243.022 41.168 247.598 42.136L257.366 44.16C268.982 46.536 274.526 52.08 274.526 62.376C274.526 74.96 264.67 83.144 249.71 83.144C235.19 83.144 225.774 75.312 225.774 63.08H239.942C239.942 67.832 243.462 70.472 249.798 70.472C256.222 70.472 260.27 67.92 260.27 63.784C260.27 60.176 258.598 58.328 254.286 57.448L244.342 55.424C232.726 53.048 226.742 46.448 226.742 35.8ZM288.991 31.136C284.679 31.136 281.247 27.704 281.247 23.392C281.247 19.08 284.679 15.736 288.991 15.736C293.215 15.736 296.647 19.08 296.647 23.392C296.647 27.704 293.215 31.136 288.991 31.136ZM282.303 82V38H295.855V82H282.303ZM323.798 82H310.246V49.264H301.886V38H310.246V24.36H323.798V38H332.158V49.264H323.798V82ZM357.743 82H344.191V49.264H335.831V38H344.191V24.36H357.743V38H366.103V49.264H357.743V82ZM392.18 83.144C378.892 83.144 369.388 73.464 369.388 59.912C369.388 46.184 378.628 36.592 391.916 36.592C405.732 36.592 414.356 45.656 414.356 60V63.432L382.412 63.608C383.204 69.416 386.46 72.144 392.444 72.144C397.548 72.144 401.156 70.296 402.124 67.128H414.532C412.948 76.896 404.236 83.144 392.18 83.144ZM392.004 47.592C386.636 47.592 383.644 49.968 382.588 55.248H400.892C400.892 50.584 397.46 47.592 392.004 47.592ZM452.653 38V50.76H448.341C440.597 50.76 435.933 54.192 435.933 62.904V82H422.381V38.088H435.141L435.845 44.6C437.693 40.288 441.565 37.384 447.461 37.384C449.045 37.384 450.805 37.56 452.653 38ZM137.34 156.352H125.196V178H110.94V112.88H137.34C150.628 112.88 159.516 121.592 159.516 134.616C159.516 147.64 150.628 156.352 137.34 156.352ZM134.172 125.552H125.196V143.68H134.172C141.036 143.68 144.468 140.688 144.468 134.616C144.468 128.544 141.036 125.552 134.172 125.552ZM185.028 179.144C171.74 179.144 162.236 169.464 162.236 155.912C162.236 142.184 171.476 132.592 184.764 132.592C198.58 132.592 207.204 141.656 207.204 156V159.432L175.26 159.608C176.052 165.416 179.308 168.144 185.292 168.144C190.396 168.144 194.004 166.296 194.972 163.128H207.38C205.796 172.896 197.084 179.144 185.028 179.144ZM184.852 143.592C179.484 143.592 176.492 145.968 175.436 151.248H193.74C193.74 146.584 190.308 143.592 184.852 143.592ZM245.501 134V146.76H241.189C233.445 146.76 228.781 150.192 228.781 158.904V178H215.229V134.088H227.989L228.693 140.6C230.541 136.288 234.413 133.384 240.309 133.384C241.893 133.384 243.653 133.56 245.501 134ZM249.937 134H256.009V130.48C256.009 117.368 262.873 111.648 274.049 111.648C275.897 111.648 278.009 111.824 280.121 112.176V123.792H276.337C270.793 123.792 269.561 126.696 269.561 130.48V134H280.121V145.264H269.561V178H256.009V145.264H249.937V134ZM305.34 179.144C292.052 179.144 282.548 169.464 282.548 155.912C282.548 142.184 291.788 132.592 305.076 132.592C318.892 132.592 327.516 141.656 327.516 156V159.432L295.572 159.608C296.364 165.416 299.62 168.144 305.604 168.144C310.708 168.144 314.316 166.296 315.284 163.128H327.692C326.108 172.896 317.396 179.144 305.34 179.144ZM305.164 143.592C299.796 143.592 296.804 145.968 295.748 151.248H314.052C314.052 146.584 310.62 143.592 305.164 143.592ZM333.166 155.824C333.166 142.272 342.494 132.592 355.694 132.592C368.718 132.592 377.342 139.72 378.222 151.248H364.582C363.614 146.848 360.886 144.736 356.222 144.736C350.502 144.736 346.806 149.048 346.806 155.824C346.806 162.864 350.238 167 356.046 167C360.798 167 363.702 164.8 364.582 160.488H378.222C377.342 171.576 368.366 179.144 356.046 179.144C342.142 179.144 333.166 169.904 333.166 155.824ZM403.419 178H389.867V145.264H381.507V134H389.867V120.36H403.419V134H411.779V145.264H403.419V178ZM44.0917 248.568H21.2117V274H6.95569V208.88H48.4037V222.08H21.2117V235.72H44.0917V248.568ZM50.7749 251.912C50.7749 238.008 60.9829 228.68 75.0629 228.68C89.0549 228.68 99.2629 238.008 99.2629 251.912C99.2629 265.816 89.0549 275.056 75.0629 275.056C60.9829 275.056 50.7749 265.816 50.7749 251.912ZM64.4149 251.824C64.4149 258.512 68.7269 262.912 75.0629 262.912C81.3109 262.912 85.6229 258.512 85.6229 251.824C85.6229 245.224 81.3109 240.824 75.0629 240.824C68.7269 240.824 64.4149 245.224 64.4149 251.824ZM137.392 230V242.76H133.08C125.336 242.76 120.672 246.192 120.672 254.904V274H107.12V230.088H119.88L120.584 236.6C122.432 232.288 126.304 229.384 132.2 229.384C133.784 229.384 135.544 229.56 137.392 230ZM185.31 249.272L163.31 208.88H179.238L190.15 230C191.206 232.024 191.91 233.608 192.614 235.28C193.406 233.696 194.11 232.024 195.166 229.912L206.078 208.88H221.566L199.566 249.272V274H185.31V249.272ZM215.431 251.912C215.431 238.008 225.639 228.68 239.719 228.68C253.711 228.68 263.919 238.008 263.919 251.912C263.919 265.816 253.711 275.056 239.719 275.056C225.639 275.056 215.431 265.816 215.431 251.912ZM229.071 251.824C229.071 258.512 233.383 262.912 239.719 262.912C245.967 262.912 250.279 258.512 250.279 251.824C250.279 245.224 245.967 240.824 239.719 240.824C233.383 240.824 229.071 245.224 229.071 251.824ZM299.961 230H313.513V274H300.753L299.873 269.072C297.145 272.68 291.689 275.144 286.409 275.144C276.377 275.144 270.217 268.456 270.217 257.632V230H283.769V252.704C283.769 259.92 286.233 263.088 291.777 263.088C297.585 263.088 299.961 260.096 299.961 252.88V230ZM353.954 230V242.76H349.642C341.898 242.76 337.234 246.192 337.234 254.904V274H323.682V230.088H336.442L337.146 236.6C338.994 232.288 342.866 229.384 348.762 229.384C350.346 229.384 352.106 229.56 353.954 230ZM412.168 252.352H400.024V274H385.768V208.88H412.168C425.456 208.88 434.344 217.592 434.344 230.616C434.344 243.64 425.456 252.352 412.168 252.352ZM409 221.552H400.024V239.68H409C415.864 239.68 419.296 236.688 419.296 230.616C419.296 224.544 415.864 221.552 409 221.552ZM459.856 275.144C446.568 275.144 437.064 265.464 437.064 251.912C437.064 238.184 446.304 228.592 459.592 228.592C473.408 228.592 482.032 237.656 482.032 252V255.432L450.088 255.608C450.88 261.416 454.136 264.144 460.12 264.144C465.224 264.144 468.832 262.296 469.8 259.128H482.208C480.624 268.896 471.912 275.144 459.856 275.144ZM459.68 239.592C454.312 239.592 451.32 241.968 450.264 247.248H468.568C468.568 242.584 465.136 239.592 459.68 239.592ZM507.403 274H493.851V241.264H485.491V230H493.851V216.36H507.403V230H515.763V241.264H507.403V274Z" fill="black"/>
<path d="M476.05 77.512C476.05 85.96 470.154 92.472 461.882 93.352V88.512C466.282 87.72 469.45 85.344 469.714 81.736C469.01 82.088 468.13 82.264 467.162 82.264C463.026 82.264 459.858 79.184 459.858 75.312C459.858 70.472 462.85 67.216 467.426 67.216C472.53 67.216 476.05 71.44 476.05 77.512Z" fill="#FF7037"/>
<path d="M434.414 173.512C434.414 181.96 428.518 188.472 420.246 189.352V184.512C424.646 183.72 427.814 181.344 428.078 177.736C427.374 178.088 426.494 178.264 425.526 178.264C421.39 178.264 418.222 175.184 418.222 171.312C418.222 166.472 421.214 163.216 425.79 163.216C430.894 163.216 434.414 167.44 434.414 173.512Z" fill="#76D0FC"/>
<path d="M530.302 275.144C525.814 275.144 522.206 271.536 522.206 267.224C522.206 262.824 525.814 259.216 530.302 259.216C534.614 259.216 538.398 262.824 538.398 267.224C538.398 271.536 534.614 275.144 530.302 275.144Z" fill="#FFCA62"/>
<path d="M88.8721 337.824H82.3441V345H79.2721V327.456H90.1201V330.288H82.3441V335.064H88.8721V337.824ZM93.9213 330.768C92.9133 330.768 92.1213 329.976 92.1213 328.992C92.1213 328.008 92.9133 327.24 93.9213 327.24C94.8813 327.24 95.6733 328.008 95.6733 328.992C95.6733 329.976 94.8813 330.768 93.9213 330.768ZM92.4573 345V333.144H95.3853V345H92.4573ZM101.338 345H98.4104V333.144H101.122L101.362 334.68C102.106 333.48 103.546 332.784 105.154 332.784C108.13 332.784 109.666 334.632 109.666 337.704V345H106.738V338.4C106.738 336.408 105.754 335.448 104.242 335.448C102.442 335.448 101.338 336.696 101.338 338.616V345ZM117.415 345.312C113.983 345.312 111.847 342.792 111.847 339.12C111.847 335.424 114.007 332.784 117.583 332.784C119.239 332.784 120.703 333.48 121.447 334.656V327.144H124.351V345H121.663L121.471 343.152C120.751 344.52 119.215 345.312 117.415 345.312ZM118.063 342.624C120.103 342.624 121.423 341.16 121.423 339.024C121.423 336.888 120.103 335.4 118.063 335.4C116.023 335.4 114.775 336.912 114.775 339.024C114.775 341.136 116.023 342.624 118.063 342.624ZM132.839 350.496V348.048H134.591C135.743 348.048 136.463 347.784 136.967 346.392L137.303 345.504L132.527 333.144H135.623L138.671 341.784L141.887 333.144H144.911L139.103 347.64C138.215 349.848 136.967 350.76 135.023 350.76C134.207 350.76 133.487 350.664 132.839 350.496ZM145.339 339.048C145.339 335.352 148.003 332.808 151.675 332.808C155.347 332.808 158.011 335.352 158.011 339.048C158.011 342.744 155.347 345.288 151.675 345.288C148.003 345.288 145.339 342.744 145.339 339.048ZM148.267 339.048C148.267 341.208 149.659 342.672 151.675 342.672C153.691 342.672 155.083 341.208 155.083 339.048C155.083 336.888 153.691 335.424 151.675 335.424C149.659 335.424 148.267 336.888 148.267 339.048ZM168.091 333.144H171.019V345H168.307L168.091 343.416C167.371 344.544 165.835 345.312 164.251 345.312C161.515 345.312 159.907 343.464 159.907 340.56V333.144H162.835V339.528C162.835 341.784 163.723 342.696 165.355 342.696C167.203 342.696 168.091 341.616 168.091 339.36V333.144ZM181.483 333.096V335.808H180.403C178.291 335.808 176.971 336.936 176.971 339.24V345H174.043V333.168H176.803L176.971 334.896C177.475 333.72 178.603 332.928 180.187 332.928C180.595 332.928 181.003 332.976 181.483 333.096ZM189.934 350.496V333.144H192.646L192.838 334.944C193.558 333.576 195.118 332.784 196.918 332.784C200.254 332.784 202.462 335.208 202.462 338.928C202.462 342.624 200.446 345.312 196.918 345.312C195.142 345.312 193.606 344.616 192.862 343.416V350.496H189.934ZM192.886 339.072C192.886 341.208 194.206 342.672 196.222 342.672C198.286 342.672 199.51 341.184 199.51 339.072C199.51 336.96 198.286 335.448 196.222 335.448C194.206 335.448 192.886 336.936 192.886 339.072ZM210.097 345.312C206.569 345.312 204.097 342.744 204.097 339.072C204.097 335.352 206.521 332.784 210.001 332.784C213.553 332.784 215.809 335.16 215.809 338.856V339.744L206.881 339.768C207.097 341.856 208.201 342.912 210.145 342.912C211.753 342.912 212.809 342.288 213.145 341.16H215.857C215.353 343.752 213.193 345.312 210.097 345.312ZM210.025 335.184C208.297 335.184 207.241 336.12 206.953 337.896H212.905C212.905 336.264 211.777 335.184 210.025 335.184ZM225.593 333.096V335.808H224.513C222.401 335.808 221.081 336.936 221.081 339.24V345H218.153V333.168H220.913L221.081 334.896C221.585 333.72 222.713 332.928 224.297 332.928C224.705 332.928 225.113 332.976 225.593 333.096ZM226.867 333.144H228.571V331.704C228.571 328.488 230.275 327.144 232.843 327.144C233.299 327.144 233.851 327.168 234.355 327.264V329.76H233.323C231.835 329.76 231.475 330.528 231.475 331.704V333.144H234.307V335.592H231.475V345H228.571V335.592H226.867V333.144ZM241.129 345.312C237.601 345.312 235.129 342.744 235.129 339.072C235.129 335.352 237.553 332.784 241.033 332.784C244.585 332.784 246.841 335.16 246.841 338.856V339.744L237.913 339.768C238.129 341.856 239.233 342.912 241.177 342.912C242.785 342.912 243.841 342.288 244.177 341.16H246.889C246.385 343.752 244.225 345.312 241.129 345.312ZM241.057 335.184C239.329 335.184 238.273 336.12 237.985 337.896H243.937C243.937 336.264 242.809 335.184 241.057 335.184ZM248.488 339.048C248.488 335.376 250.912 332.784 254.416 332.784C257.656 332.784 259.864 334.584 260.176 337.44H257.248C256.912 336.096 255.928 335.4 254.536 335.4C252.664 335.4 251.416 336.816 251.416 339.048C251.416 341.28 252.568 342.672 254.44 342.672C255.904 342.672 256.936 341.952 257.248 340.656H260.2C259.84 343.416 257.536 345.312 254.44 345.312C250.84 345.312 248.488 342.816 248.488 339.048ZM266.411 345H263.483V335.592H261.203V333.144H263.483V329.448H266.411V333.144H268.715V335.592H266.411V345ZM277.004 350.496V333.144H279.716L279.908 334.944C280.628 333.576 282.188 332.784 283.988 332.784C287.324 332.784 289.532 335.208 289.532 338.928C289.532 342.624 287.516 345.312 283.988 345.312C282.212 345.312 280.676 344.616 279.932 343.416V350.496H277.004ZM279.956 339.072C279.956 341.208 281.276 342.672 283.292 342.672C285.356 342.672 286.58 341.184 286.58 339.072C286.58 336.96 285.356 335.448 283.292 335.448C281.276 335.448 279.956 336.936 279.956 339.072ZM297.168 345.312C293.64 345.312 291.168 342.744 291.168 339.072C291.168 335.352 293.592 332.784 297.072 332.784C300.624 332.784 302.88 335.16 302.88 338.856V339.744L293.952 339.768C294.168 341.856 295.272 342.912 297.216 342.912C298.824 342.912 299.88 342.288 300.216 341.16H302.928C302.424 343.752 300.264 345.312 297.168 345.312ZM297.096 335.184C295.368 335.184 294.312 336.12 294.024 337.896H299.976C299.976 336.264 298.848 335.184 297.096 335.184ZM309.138 345H306.21V335.592H303.93V333.144H306.21V329.448H309.138V333.144H311.442V335.592H309.138V345ZM318.819 341.4H321.603C321.627 342.432 322.395 343.08 323.739 343.08C325.107 343.08 325.851 342.528 325.851 341.664C325.851 341.064 325.539 340.632 324.483 340.392L322.347 339.888C320.211 339.408 319.179 338.4 319.179 336.504C319.179 334.176 321.147 332.784 323.883 332.784C326.547 332.784 328.347 334.32 328.371 336.624H325.587C325.563 335.616 324.891 334.968 323.763 334.968C322.611 334.968 321.939 335.496 321.939 336.384C321.939 337.056 322.467 337.488 323.475 337.728L325.611 338.232C327.603 338.688 328.611 339.6 328.611 341.424C328.611 343.824 326.571 345.312 323.643 345.312C320.691 345.312 318.819 343.728 318.819 341.4ZM332.304 330.768C331.296 330.768 330.504 329.976 330.504 328.992C330.504 328.008 331.296 327.24 332.304 327.24C333.264 327.24 334.056 328.008 334.056 328.992C334.056 329.976 333.264 330.768 332.304 330.768ZM330.84 345V333.144H333.768V345H330.84ZM340.825 345H337.897V335.592H335.617V333.144H337.897V329.448H340.825V333.144H343.129V335.592H340.825V345ZM349.31 345H346.382V335.592H344.102V333.144H346.382V329.448H349.31V333.144H351.614V335.592H349.31V345ZM358.621 345.312C355.093 345.312 352.621 342.744 352.621 339.072C352.621 335.352 355.045 332.784 358.525 332.784C362.077 332.784 364.333 335.16 364.333 338.856V339.744L355.405 339.768C355.621 341.856 356.725 342.912 358.669 342.912C360.277 342.912 361.333 342.288 361.669 341.16H364.381C363.877 343.752 361.717 345.312 358.621 345.312ZM358.549 335.184C356.821 335.184 355.765 336.12 355.477 337.896H361.429C361.429 336.264 360.301 335.184 358.549 335.184ZM374.116 333.096V335.808H373.036C370.924 335.808 369.604 336.936 369.604 339.24V345H366.676V333.168H369.436L369.604 334.896C370.108 333.72 371.236 332.928 372.82 332.928C373.228 332.928 373.636 332.976 374.116 333.096ZM385.183 345L381.343 333.144H384.391L385.951 338.232C386.215 339.168 386.455 340.2 386.671 341.304C386.887 340.152 387.103 339.408 387.487 338.232L389.119 333.144H392.095L393.679 338.232C393.823 338.712 394.303 340.488 394.447 341.28C394.639 340.392 395.023 338.976 395.239 338.232L396.823 333.144H399.919L395.815 345H393.079L391.447 339.864C390.967 338.304 390.703 337.176 390.607 336.576C390.487 337.128 390.271 337.968 389.671 339.912L388.039 345H385.183ZM403.156 330.768C402.148 330.768 401.356 329.976 401.356 328.992C401.356 328.008 402.148 327.24 403.156 327.24C404.116 327.24 404.908 328.008 404.908 328.992C404.908 329.976 404.116 330.768 403.156 330.768ZM401.692 345V333.144H404.62V345H401.692ZM411.677 345H408.749V335.592H406.469V333.144H408.749V329.448H411.677V333.144H413.981V335.592H411.677V345ZM418.729 345H415.801V327.144H418.753V334.68C419.497 333.528 420.889 332.784 422.593 332.784C425.521 332.784 427.057 334.632 427.057 337.704V345H424.129V338.4C424.129 336.408 423.145 335.448 421.657 335.448C419.809 335.448 418.729 336.744 418.729 338.52V345ZM444.443 333.144H447.371V345H444.659L444.443 343.416C443.723 344.544 442.187 345.312 440.603 345.312C437.867 345.312 436.259 343.464 436.259 340.56V333.144H439.187V339.528C439.187 341.784 440.075 342.696 441.707 342.696C443.555 342.696 444.443 341.616 444.443 339.36V333.144ZM449.248 341.4H452.032C452.056 342.432 452.824 343.08 454.168 343.08C455.536 343.08 456.28 342.528 456.28 341.664C456.28 341.064 455.968 340.632 454.912 340.392L452.776 339.888C450.64 339.408 449.608 338.4 449.608 336.504C449.608 334.176 451.576 332.784 454.312 332.784C456.976 332.784 458.776 334.32 458.8 336.624H456.016C455.992 335.616 455.32 334.968 454.192 334.968C453.04 334.968 452.368 335.496 452.368 336.384C452.368 337.056 452.896 337.488 453.904 337.728L456.04 338.232C458.032 338.688 459.04 339.6 459.04 341.424C459.04 343.824 457 345.312 454.072 345.312C451.12 345.312 449.248 343.728 449.248 341.4ZM463.168 345.288C462.112 345.288 461.224 344.424 461.224 343.392C461.224 342.336 462.112 341.472 463.168 341.472C464.224 341.472 465.112 342.336 465.112 343.392C465.112 344.424 464.224 345.288 463.168 345.288Z" fill="#7B7E8F"/>
</svg>
