<svg width="132" height="40" viewBox="0 0 132 40" fill="none" xmlns="http://www.w3.org/2000/svg">
<path d="M4.68637 14.0697C4.68637 7.87613 9.14573 3.87097 15.9586 3.87097C21.8219 3.87097 26.4051 7.91742 26.6115 13.2852H20.129C19.8812 11.0555 18.147 9.65162 15.6283 9.65162C12.738 9.65162 11.0864 10.8903 11.0864 13.12C11.0864 14.8542 12.0361 15.8865 14.1419 16.5058L18.4773 17.7858C22.978 19.1484 25.1251 21.6671 25.1251 25.6723C25.1251 31.6181 20.6244 35.5406 13.729 35.5406C7.08121 35.5406 2.78702 31.9484 2.58057 26.1265H9.06315C9.18702 28.3974 11.0451 29.76 14.018 29.76C16.9909 29.76 18.7664 28.48 18.7664 26.3329C18.7664 24.8052 18.0644 24.0619 16.1238 23.4839L11.6644 22.2039C7.20508 20.9239 4.68637 17.9923 4.68637 14.0697Z" fill="#FF7037"/>
<path d="M33.949 11.0555C32.2148 11.0555 30.976 9.77549 30.976 8.08258C30.976 5.93549 32.9167 3.99484 35.1051 3.99484C36.8393 3.99484 38.078 5.27484 38.078 6.96775C38.078 9.07355 36.0961 11.0555 33.949 11.0555ZM27.136 35.0039L30.398 14.3587H36.5502L33.2883 35.0039H27.136Z" fill="#FF7037"/>
<path d="M48.0154 35.0039H41.6567V19.6439H37.7341V14.3587H41.6567V7.95871H48.0154V14.3587H51.938V19.6439H48.0154V35.0039Z" fill="black"/>
<path d="M63.9428 35.0039H57.5841V19.6439H53.6615V14.3587H57.5841V7.95871H63.9428V14.3587H67.8654V19.6439H63.9428V35.0039Z" fill="black"/>
<path d="M80.1009 35.5406C73.866 35.5406 69.4067 30.9987 69.4067 24.64C69.4067 18.1987 73.7422 13.6981 79.977 13.6981C86.4596 13.6981 90.5061 17.951 90.5061 24.6813V26.2916L75.5177 26.3742C75.8893 29.0994 77.417 30.3794 80.2248 30.3794C82.6196 30.3794 84.3125 29.5123 84.7667 28.0258H90.5886C89.8454 32.609 85.7577 35.5406 80.1009 35.5406ZM80.0183 18.8594C77.4996 18.8594 76.0957 19.9742 75.6002 22.4516H84.1886C84.1886 20.2632 82.5783 18.8594 80.0183 18.8594Z" fill="black"/>
<path d="M108.475 14.3587V20.3458H106.452C102.819 20.3458 100.63 21.9561 100.63 26.0439V35.0039H94.2715V14.4H100.259L100.589 17.4555C101.456 15.4323 103.273 14.0697 106.039 14.0697C106.782 14.0697 107.608 14.1523 108.475 14.3587Z" fill="black"/>
<path d="M120.645 3.87097L122.885 7.92489L127.371 7.19331L125.678 11.5169L129.032 14.6585L124.681 15.996L124.378 20.6452L120.645 17.9894L116.913 20.6452L116.61 15.996L112.258 14.6585L115.613 11.5169L113.919 7.19331L118.406 7.92489L120.645 3.87097Z" fill="#1CCD83"/>
</svg>
